{
.appVersion = "3414";
.formatVersion = 3;
date = "2025-04-26 21:58:05 +0000";
familyName = "Outpost Mono";
fontMaster = (
{
id = m01;
metricValues = (
{
over = 16;
pos = 800;
},
{
over = 16;
pos = 700;
},
{
over = 16;
pos = 500;
},
{
over = -16;
},
{
over = -16;
pos = -200;
},
{
}
);
name = Regular;
}
);
glyphs = (
{
glyphname = A;
lastChange = "2025-05-30 19:23:04 +0000";
layers = (
{
hints = (
{
name = _corner.round;
origin = (0,9);
type = Corner;
},
{
name = _corner.round;
options = 2;
origin = (0,8);
scale = (-1,1);
type = Corner;
}
);
layerId = m01;
shapes = (
{
closed = 1;
nodes = (
(50,0,l),
(130,0,l),
(130,669,l),
(91,640,l),
(440,640,l),
(406,669,l),
(406,0,l),
(486,0,l),
(486,700,l),
(50,700,l)
);
},
{
closed = 1;
nodes = (
(91,383,l),
(440,383,l),
(440,443,l),
(91,443,l)
);
}
);
width = 536;
}
);
unicode = 65;
},
{
glyphname = B;
lastChange = "2025-05-30 19:58:28 +0000";
layers = (
{
hints = (
{
name = _corner.round;
origin = (0,10);
type = Corner;
},
{
name = _corner.round;
options = 2;
origin = (0,11);
scale = (-1,1);
type = Corner;
},
{
name = _corner.round;
origin = (2,1);
type = Corner;
},
{
name = _corner.round;
options = 2;
origin = (0,10);
scale = (-1,1);
type = Corner;
},
{
name = _corner.round;
origin = (0,10);
type = Corner;
},
{
name = _corner.round;
origin = (0,10);
type = Corner;
},
{
name = _corner.round;
origin = (2,1);
type = Corner;
},
{
name = _corner.round;
options = 2;
origin = (2,2);
scale = (-1,1);
type = Corner;
}
);
layerId = m01;
shapes = (
{
closed = 1;
nodes = (
(50,0,l),
(420,0,l),
(420,60,l),
(91,60,l),
(130,28,l),
(130,669,l),
(91,640,l),
(420,640,l),
(406,669,l),
(406,413,l),
(486,413,l),
(486,700,l),
(50,700,l)
);
},
{
closed = 1;
nodes = (
(91,383,l),
(420,383,l),
(420,443,l),
(91,443,l)
);
},
{
closed = 1;
nodes = (
(406,0,l),
(486,0,l),
(486,413,l),
(406,413,l)
);
}
);
width = 536;
}
);
unicode = 66;
},
{
glyphname = C;
lastChange = "2025-05-30 19:22:31 +0000";
layers = (
{
hints = (
{
name = _corner.round;
origin = (0,0);
type = Corner;
},
{
name = _corner.round;
origin = (0,9);
type = Corner;
}
);
layerId = m01;
shapes = (
{
closed = 1;
nodes = (
(50,0,l),
(486,0,l),
(486,60,l),
(92,60,l),
(130,28,l),
(130,671,l),
(92,640,l),
(486,640,l),
(486,700,l),
(50,700,l)
);
}
);
width = 536;
}
);
unicode = 67;
},
{
glyphname = D;
lastChange = "2025-05-30 19:23:42 +0000";
layers = (
{
hints = (
{
name = _corner.round;
origin = (0,1);
type = Corner;
},
{
name = _corner.round;
origin = (0,2);
type = Corner;
}
);
layerId = m01;
shapes = (
{
closed = 1;
nodes = (
(50,0,l),
(486,0,l),
(486,700,l),
(50,700,l)
);
},
{
closed = 1;
nodes = (
(130,669,l),
(92,640,l),
(446,640,l),
(406,669,l),
(406,27,l),
(446,60,l),
(92,60,l),
(130,27,l)
);
}
);
width = 536;
}
);
unicode = 68;
},
{
glyphname = E;
lastChange = "2025-05-30 19:24:05 +0000";
layers = (
{
layerId = m01;
shapes = (
{
closed = 1;
nodes = (
(50,0,l),
(486,0,l),
(486,60,l),
(93,60,l),
(130,28,l),
(130,670,l),
(93,640,l),
(486,640,l),
(486,700,l),
(50,700,l)
);
},
{
closed = 1;
nodes = (
(91,383,l),
(420,383,l),
(420,443,l),
(91,443,l)
);
}
);
width = 536;
}
);
unicode = 69;
},
{
glyphname = F;
lastChange = "2025-05-30 19:24:19 +0000";
layers = (
{
layerId = m01;
shapes = (
{
closed = 1;
nodes = (
(50,0,l),
(130,0,l),
(130,675,l),
(91,640,l),
(486,640,l),
(486,700,l),
(50,700,l)
);
},
{
closed = 1;
nodes = (
(91,383,l),
(420,383,l),
(420,443,l),
(91,443,l)
);
}
);
width = 536;
}
);
unicode = 70;
},
{
glyphname = G;
lastChange = "2025-05-30 19:25:04 +0000";
layers = (
{
hints = (
{
name = _corner.round;
origin = (0,0);
type = Corner;
},
{
name = _corner.round;
origin = (0,15);
type = Corner;
},
{
name = _corner.round;
origin = (0,1);
type = Corner;
},
{
name = _corner.round;
origin = (0,2);
type = Corner;
}
);
layerId = m01;
shapes = (
{
closed = 1;
nodes = (
(50,0,l),
(486,0,l),
(486,443,l),
(251,443,l),
(251,383,l),
(443,383,l),
(406,428,l),
(406,26,l),
(443,60,l),
(93,60,l),
(130,26,l),
(130,670,l),
(93,640,l),
(486,640,l),
(486,700,l),
(50,700,l)
);
}
);
width = 536;
}
);
unicode = 71;
},
{
glyphname = H;
lastChange = "2025-05-30 19:25:23 +0000";
layers = (
{
layerId = m01;
shapes = (
{
closed = 1;
nodes = (
(50,0,l),
(130,0,l),
(130,700,l),
(50,700,l)
);
},
{
closed = 1;
nodes = (
(406,0,l),
(486,0,l),
(486,700,l),
(406,700,l)
);
},
{
closed = 1;
nodes = (
(95,383,l),
(440,383,l),
(440,443,l),
(95,443,l)
);
}
);
width = 536;
}
);
unicode = 72;
},
{
glyphname = I;
lastChange = "2025-05-30 19:25:33 +0000";
layers = (
{
layerId = m01;
shapes = (
{
closed = 1;
nodes = (
(50,700,l),
(50,640,l),
(253,640,l),
(228,671,l),
(228,27,l),
(253,60,l),
(50,60,l),
(50,0,l),
(486,0,l),
(486,60,l),
(283,60,l),
(308,27,l),
(308,671,l),
(283,640,l),
(486,640,l),
(486,700,l)
);
}
);
width = 536;
}
);
unicode = 73;
},
{
glyphname = J;
lastChange = "2025-05-30 19:25:51 +0000";
layers = (
{
hints = (
{
name = _corner.round;
origin = (0,5);
type = Corner;
},
{
name = _corner.round;
origin = (0,6);
type = Corner;
},
{
name = _corner.round;
origin = (0,7);
type = Corner;
}
);
layerId = m01;
shapes = (
{
closed = 1;
nodes = (
(406,27,l),
(441,60,l),
(95,60,l),
(130,27,l),
(130,270,l),
(50,270,l),
(50,0,l),
(486,0,l),
(486,700,l),
(406,700,l)
);
}
);
width = 536;
}
);
unicode = 74;
},
{
glyphname = K;
lastChange = "2025-05-31 01:27:34 +0000";
layers = (
{
layerId = m01;
shapes = (
{
closed = 1;
nodes = (
(50,0,l),
(130,0,l),
(130,700,l),
(50,700,l)
);
},
{
closed = 1;
nodes = (
(204,372,l),
(417,0,l),
(509,0,l),
(261,433,l)
);
},
{
closed = 1;
nodes = (
(466,700,l),
(392,700,l),
(122,292,l),
(120,186,l)
);
}
);
width = 536;
}
);
unicode = 75;
},
{
glyphname = L;
lastChange = "2025-05-30 19:26:36 +0000";
layers = (
{
layerId = m01;
shapes = (
{
closed = 1;
nodes = (
(50,700,l),
(50,0,l),
(486,0,l),
(486,60,l),
(93,60,l),
(130,31,l),
(130,700,l)
);
}
);
width = 536;
}
);
unicode = 76;
},
{
glyphname = M;
lastChange = "2025-05-30 19:35:35 +0000";
layers = (
{
guides = (
{
pos = (-199,630);
}
);
layerId = m01;
shapes = (
{
closed = 1;
nodes = (
(110,0,l),
(110,616,l),
(89,611,l),
(234,337,l),
(302,337,l),
(447,611,l),
(426,616,l),
(426,0,l),
(506,0,l),
(506,700,l),
(426,700,l),
(247,361,l),
(289,361,l),
(110,700,l),
(30,700,l),
(30,0,l)
);
}
);
width = 536;
}
);
unicode = 77;
},
{
glyphname = N;
lastChange = "2025-05-30 19:37:07 +0000";
layers = (
{
layerId = m01;
shapes = (
{
closed = 1;
nodes = (
(50,0,l),
(130,0,l),
(130,658,l),
(121,661,l),
(367,0,l),
(486,0,l),
(486,700,l),
(406,700,l),
(406,17,l),
(423,21,l),
(170,700,l),
(50,700,l)
);
}
);
width = 536;
}
);
unicode = 78;
},
{
glyphname = O;
lastChange = "2025-05-30 19:37:35 +0000";
layers = (
{
hints = (
{
name = _corner.round;
origin = (0,1);
type = Corner;
},
{
name = _corner.round;
origin = (0,2);
type = Corner;
},
{
name = _corner.round;
origin = (0,0);
type = Corner;
},
{
name = _corner.round;
origin = (0,3);
type = Corner;
}
);
layerId = m01;
shapes = (
{
closed = 1;
nodes = (
(50,0,l),
(486,0,l),
(486,700,l),
(50,700,l)
);
},
{
closed = 1;
nodes = (
(130,672,l),
(95,640,l),
(451,640,l),
(406,672,l),
(406,27,l),
(451,60,l),
(95,60,l),
(130,27,l)
);
}
);
width = 536;
}
);
unicode = 79;
},
{
glyphname = P;
lastChange = "2025-05-30 19:38:29 +0000";
layers = (
{
hints = (
{
name = _corner.round;
origin = (0,3);
type = Corner;
},
{
name = _corner.round;
options = 2;
origin = (0,4);
scale = (-1,1);
type = Corner;
}
);
layerId = m01;
shapes = (
{
closed = 1;
nodes = (
(50,0,l),
(130,0,l),
(130,383,l),
(486,383,l),
(486,700,l),
(50,700,l)
);
},
{
closed = 1;
nodes = (
(130,675,l),
(91,640,l),
(448,640,l),
(406,675,l),
(406,410,l),
(448,443,l),
(91,443,l),
(130,410,l)
);
}
);
width = 536;
}
);
unicode = 80;
},
{
glyphname = Q;
lastChange = "2025-05-30 19:39:03 +0000";
layers = (
{
hints = (
{
name = _corner.round;
origin = (0,0);
type = Corner;
},
{
name = _corner.round;
origin = (0,3);
type = Corner;
},
{
name = _corner.round;
origin = (0,1);
type = Corner;
},
{
name = _corner.round;
origin = (0,2);
type = Corner;
},
{
name = _corner.round;
origin = (2,2);
type = Corner;
}
);
layerId = m01;
shapes = (
{
closed = 1;
nodes = (
(50,0,l),
(486,0,l),
(486,700,l),
(50,700,l)
);
},
{
closed = 1;
nodes = (
(130,665,l),
(95,640,l),
(441,640,l),
(406,665,l),
(406,35,l),
(441,60,l),
(95,60,l),
(130,35,l)
);
},
{
closed = 1;
nodes = (
(306,25,l),
(306,-112,l),
(366,-112,l),
(366,25,l)
);
}
);
width = 536;
}
);
unicode = 81;
},
{
glyphname = R;
lastChange = "2025-05-30 19:39:33 +0000";
layers = (
{
hints = (
{
name = _corner.round;
origin = (0,7);
type = Corner;
},
{
name = _corner.round;
options = 2;
origin = (0,8);
scale = (-1,1);
type = Corner;
},
{
name = _corner.round;
origin = (0,7);
type = Corner;
},
{
name = _corner.round;
origin = (2,2);
type = Corner;
}
);
layerId = m01;
shapes = (
{
closed = 1;
nodes = (
(50,0,l),
(130,0,l),
(130,669,l),
(95,640,l),
(411,640,l),
(406,669,l),
(406,413,l),
(486,413,l),
(486,700,l),
(50,700,l)
);
},
{
closed = 1;
nodes = (
(95,383,l),
(420,383,l),
(420,443,l),
(95,443,l)
);
},
{
closed = 1;
nodes = (
(406,0,l),
(486,0,l),
(486,413,l),
(406,413,l)
);
}
);
width = 536;
}
);
unicode = 82;
},
{
glyphname = S;
lastChange = "2025-05-30 19:40:25 +0000";
layers = (
{
hints = (
{
name = _corner.round;
origin = (0,1);
type = Corner;
},
{
name = _corner.round;
options = 2;
origin = (0,0);
scale = (-1,1);
type = Corner;
},
{
name = _corner.round;
origin = (0,8);
type = Corner;
},
{
name = _corner.round;
origin = (0,9);
type = Corner;
}
);
layerId = m01;
shapes = (
{
closed = 1;
nodes = (
(60,700,l),
(60,383,l),
(441,383,l),
(406,418,l),
(406,25,l),
(441,60,l),
(50,60,l),
(50,0,l),
(486,0,l),
(486,443,l),
(105,443,l),
(140,408,l),
(140,675,l),
(105,640,l),
(486,640,l),
(486,700,l)
);
}
);
width = 536;
}
);
unicode = 83;
},
{
glyphname = T;
lastChange = "2025-05-30 19:40:32 +0000";
layers = (
{
layerId = m01;
shapes = (
{
closed = 1;
nodes = (
(20,700,l),
(20,640,l),
(253,640,l),
(228,675,l),
(228,0,l),
(308,0,l),
(308,675,l),
(283,640,l),
(516,640,l),
(516,700,l)
);
}
);
width = 536;
}
);
unicode = 84;
},
{
glyphname = U;
lastChange = "2025-05-30 19:40:48 +0000";
layers = (
{
hints = (
{
name = _corner.round;
origin = (0,0);
type = Corner;
},
{
name = _corner.round;
origin = (0,1);
type = Corner;
}
);
layerId = m01;
shapes = (
{
closed = 1;
nodes = (
(50,0,l),
(486,0,l),
(486,700,l),
(406,700,l),
(406,26,l),
(441,60,l),
(95,60,l),
(130,26,l),
(130,700,l),
(50,700,l)
);
}
);
width = 536;
}
);
unicode = 85;
},
{
glyphname = V;
lastChange = "2025-05-30 19:41:21 +0000";
layers = (
{
layerId = m01;
shapes = (
{
closed = 1;
nodes = (
(211,0,l),
(331,0,l),
(486,700,l),
(425,700,l),
(276,31,l),
(285,34,l),
(133,700,l),
(50,700,l)
);
}
);
width = 536;
}
);
unicode = 86;
},
{
glyphname = W;
lastChange = "2025-05-30 19:35:56 +0000";
layers = (
{
guides = (
{
pos = (404,132);
}
);
layerId = m01;
shapes = (
{
closed = 1;
nodes = (
(30,0,l),
(110,0,l),
(289,339,l),
(247,339,l),
(426,0,l),
(506,0,l),
(506,700,l),
(426,700,l),
(426,84,l),
(447,89,l),
(302,363,l),
(234,363,l),
(89,89,l),
(110,84,l),
(110,700,l),
(30,700,l)
);
}
);
width = 536;
}
);
unicode = 87;
},
{
glyphname = X;
lastChange = "2025-05-30 19:48:48 +0000";
layers = (
{
layerId = m01;
shapes = (
{
closed = 1;
nodes = (
(36,700,l),
(414,0,l),
(505,0,l),
(127,700,l)
);
},
{
closed = 1;
nodes = (
(306,356,l),
(490,700,l),
(422,700,l),
(238,356,l)
);
},
{
closed = 1;
nodes = (
(223,356,l),
(32,0,l),
(100,0,l),
(291,356,l)
);
}
);
width = 536;
}
);
unicode = 88;
},
{
glyphname = Y;
lastChange = "2025-05-30 19:52:53 +0000";
layers = (
{
layerId = m01;
shapes = (
{
closed = 1;
nodes = (
(230,0,l),
(310,0,l),
(310,394,l),
(230,394,l)
);
},
{
closed = 1;
nodes = (
(308,378,l),
(134,700,l),
(42,700,l),
(230,355,l)
);
},
{
closed = 1;
nodes = (
(310,356,l),
(494,700,l),
(426,700,l),
(242,356,l)
);
}
);
width = 536;
}
);
unicode = 89;
},
{
glyphname = Z;
lastChange = "2025-05-30 19:55:50 +0000";
layers = (
{
layerId = m01;
shapes = (
{
closed = 1;
nodes = (
(65,640,l),
(414,640,l),
(401,680,l),
(45,60,l),
(45,0,l),
(491,0,l),
(491,60,l),
(110,60,l),
(114,20,l),
(470,640,l),
(470,700,l),
(65,700,l)
);
}
);
width = 536;
}
);
unicode = 90;
},
{
glyphname = a;
lastChange = "2025-05-30 19:56:11 +0000";
layers = (
{
hints = (
{
name = _corner.round;
origin = (0,3);
type = Corner;
},
{
name = _corner.round;
origin = (0,0);
type = Corner;
},
{
name = _corner.round;
origin = (0,1);
type = Corner;
}
);
layerId = m01;
shapes = (
{
closed = 1;
nodes = (
(50,349,l),
(50,0,l),
(486,0,l),
(486,500,l),
(50,500,l),
(50,440,l),
(441,440,l),
(406,475,l),
(406,324,l),
(441,349,l)
);
},
{
closed = 1;
nodes = (
(130,314,l),
(95,289,l),
(441,289,l),
(406,314,l),
(406,33,l),
(441,60,l),
(95,60,l),
(130,33,l)
);
}
);
width = 536;
}
);
unicode = 97;
},
{
glyphname = b;
lastChange = "2025-05-30 19:58:07 +0000";
layers = (
{
hints = (
{
name = _corner.round;
origin = (0,10);
type = Corner;
},
{
name = _corner.round;
origin = (0,11);
type = Corner;
}
);
layerId = m01;
shapes = (
{
closed = 1;
nodes = (
(95,440,l),
(444,440,l),
(406,464,l),
(406,26,l),
(444,60,l),
(95,60,l),
(130,26,l),
(130,700,l),
(50,700,l),
(50,0,l),
(486,0,l),
(486,500,l),
(95,500,l)
);
}
);
width = 536;
}
);
unicode = 98;
},
{
glyphname = c;
lastChange = "2025-05-30 19:59:04 +0000";
layers = (
{
hints = (
{
name = _corner.round;
origin = (0,1);
type = Corner;
},
{
name = _corner.round;
origin = (0,0);
type = Corner;
}
);
layerId = m01;
shapes = (
{
closed = 1;
nodes = (
(50,500,l),
(50,0,l),
(486,0,l),
(486,60,l),
(95,60,l),
(130,25,l),
(130,475,l),
(95,440,l),
(486,440,l),
(486,500,l)
);
}
);
width = 536;
}
);
unicode = 99;
},
{
glyphname = d;
lastChange = "2025-05-30 20:00:18 +0000";
layers = (
{
hints = (
{
name = _corner.round;
origin = (0,9);
type = Corner;
},
{
name = _corner.round;
origin = (0,8);
type = Corner;
}
);
layerId = m01;
shapes = (
{
closed = 1;
nodes = (
(406,35,l),
(451,60,l),
(95,60,l),
(130,35,l),
(130,465,l),
(95,440,l),
(451,440,l),
(451,500,l),
(50,500,l),
(50,0,l),
(486,0,l),
(486,700,l),
(406,700,l)
);
}
);
width = 536;
}
);
unicode = 100;
},
{
glyphname = e;
lastChange = "2025-05-30 20:00:40 +0000";
layers = (
{
hints = (
{
name = _corner.round;
origin = (0,3);
type = Corner;
},
{
name = _corner.round;
origin = (0,4);
type = Corner;
},
{
name = _corner.round;
origin = (0,2);
type = Corner;
},
{
name = _corner.round;
origin = (0,1);
type = Corner;
}
);
layerId = m01;
shapes = (
{
closed = 1;
nodes = (
(85,289,l),
(486,289,l),
(486,500,l),
(50,500,l),
(50,0,l),
(486,0,l),
(486,60,l),
(85,60,l),
(130,27,l),
(130,475,l),
(85,440,l),
(441,440,l),
(406,475,l),
(406,349,l),
(85,349,l)
);
}
);
width = 536;
}
);
unicode = 101;
},
{
glyphname = f;
lastChange = "2025-05-30 20:01:18 +0000";
layers = (
{
hints = (
{
name = _corner.round;
origin = (0,0);
type = Corner;
}
);
layerId = m01;
shapes = (
{
closed = 1;
nodes = (
(206,700,l),
(206,0,l),
(286,0,l),
(286,671,l),
(261,640,l),
(486,640,l),
(486,700,l)
);
},
{
closed = 1;
nodes = (
(10,440,l),
(486,440,l),
(486,500,l),
(10,500,l)
);
}
);
width = 536;
}
);
unicode = 102;
},
{
glyphname = g;
lastChange = "2025-05-30 20:02:38 +0000";
layers = (
{
hints = (
{
name = _corner.round;
origin = (0,13);
type = Corner;
},
{
name = _corner.round;
origin = (0,14);
type = Corner;
},
{
name = _corner.round;
origin = (0,11);
type = Corner;
}
);
layerId = m01;
shapes = (
{
closed = 1;
nodes = (
(431,60,l),
(95,60,l),
(130,35,l),
(130,465,l),
(95,440,l),
(431,440,l),
(406,465,l),
(406,-169,l),
(431,-140,l),
(50,-140,l),
(50,-200,l),
(486,-200,l),
(486,500,l),
(50,500,l),
(50,0,l),
(431,0,l)
);
}
);
width = 536;
}
);
unicode = 103;
},
{
glyphname = h;
lastChange = "2025-05-30 20:02:50 +0000";
layers = (
{
hints = (
{
name = _corner.round;
origin = (1,6);
type = Corner;
}
);
layerId = m01;
shapes = (
{
closed = 1;
nodes = (
(50,700,l),
(50,0,l),
(130,0,l),
(130,700,l)
);
},
{
closed = 1;
nodes = (
(80,500,l),
(80,440,l),
(441,440,l),
(406,485,l),
(406,0,l),
(486,0,l),
(486,500,l)
);
}
);
width = 536;
}
);
unicode = 104;
},
{
glyphname = i;
lastChange = "2025-05-30 20:03:19 +0000";
layers = (
{
layerId = m01;
shapes = (
{
closed = 1;
nodes = (
(83,500,l),
(83,440,l),
(253,440,l),
(228,475,l),
(228,25,l),
(253,60,l),
(50,60,l),
(50,0,l),
(486,0,l),
(486,60,l),
(283,60,l),
(308,25,l),
(308,500,l)
);
},
{
closed = 1;
nodes = (
(291,590,o),
(313,612,o),
(313,640,cs),
(313,668,o),
(291,690,o),
(263,690,cs),
(235,690,o),
(213,668,o),
(213,640,cs),
(213,612,o),
(235,590,o),
(263,590,cs)
);
}
);
width = 536;
}
);
unicode = 105;
},
{
glyphname = j;
lastChange = "2025-05-30 20:40:08 +0000";
layers = (
{
guides = (
{
angle = 180;
pos = (110,60);
}
);
hints = (
{
name = _corner.round;
origin = (1,2);
type = Corner;
}
);
layerId = m01;
shapes = (
{
closed = 1;
nodes = (
(439,590,o),
(461,612,o),
(461,640,cs),
(461,668,o),
(439,690,o),
(411,690,cs),
(383,690,o),
(361,668,o),
(361,640,cs),
(361,612,o),
(383,590,o),
(411,590,cs)
);
},
{
closed = 1;
nodes = (
(40,-140,l),
(40,-200,l),
(456,-200,l),
(456,500,l),
(211,500,l),
(211,440,l),
(401,440,l),
(376,485,l),
(376,-140,l)
);
}
);
width = 536;
}
);
unicode = 106;
},
{
glyphname = k;
lastChange = "2025-05-30 20:05:43 +0000";
layers = (
{
layerId = m01;
shapes = (
{
closed = 1;
nodes = (
(63,700,l),
(63,0,l),
(143,0,l),
(143,700,l)
);
},
{
closed = 1;
nodes = (
(127,166,l),
(434,500,l),
(354,500,l),
(132,259,l)
);
},
{
closed = 1;
nodes = (
(393,0,l),
(473,0,l),
(223,341,l),
(195,271,l)
);
}
);
width = 536;
}
);
unicode = 107;
},
{
glyphname = l;
lastChange = "2025-05-30 20:05:52 +0000";
layers = (
{
layerId = m01;
shapes = (
{
closed = 1;
nodes = (
(50,60,l),
(50,0,l),
(486,0,l),
(486,60,l)
);
},
{
closed = 1;
nodes = (
(308,28,l),
(308,700,l),
(83,700,l),
(83,640,l),
(253,640,l),
(228,675,l),
(228,28,l)
);
}
);
width = 536;
}
);
unicode = 108;
},
{
glyphname = m;
lastChange = "2025-05-30 20:38:25 +0000";
layers = (
{
hints = (
{
name = _corner.round;
origin = (1,6);
scale = (0.75,0.75);
type = Corner;
},
{
name = _corner.round;
origin = (0,6);
scale = (0.75,0.75);
type = Corner;
},
{
name = _corner.round;
origin = (0,6);
type = Corner;
},
{
name = _corner.round;
origin = (0,6);
type = Corner;
},
{
name = _corner.round;
options = 2;
origin = (0,6);
scale = (-1,1);
type = Corner;
},
{
name = _corner.round;
origin = (0,6);
type = Corner;
},
{
name = _corner.round;
type = Corner;
},
{
name = _corner.round;
type = Corner;
},
{
name = _corner.round;
origin = (0,6);
type = Corner;
},
{
name = _corner.round;
origin = (0,6);
scale = (0.75,0.76);
type = Corner;
},
{
name = _corner.round;
origin = (1,0);
scale = (0.75,0.75);
type = Corner;
}
);
layerId = m01;
shapes = (
{
closed = 1;
nodes = (
(30,500,l),
(30,0,l),
(110,0,l),
(110,465,l),
(85,440,l),
(277,440,l),
(277,500,l)
);
},
{
closed = 1;
nodes = (
(277,500,l),
(277,440,l),
(471,440,l),
(426,465,l),
(426,0,l),
(506,0,l),
(506,500,l)
);
},
{
closed = 1;
nodes = (
(247,465,l),
(247,58,l),
(307,58,l),
(307,465,l)
);
}
);
width = 536;
}
);
unicode = 109;
},
{
glyphname = n;
lastChange = "2025-05-30 20:08:24 +0000";
layers = (
{
hints = (
{
name = _corner.round;
origin = (0,9);
type = Corner;
}
);
layerId = m01;
shapes = (
{
closed = 1;
nodes = (
(50,500,l),
(50,0,l),
(130,0,l),
(130,475,l),
(95,440,l),
(441,440,l),
(406,475,l),
(406,0,l),
(486,0,l),
(486,500,l)
);
}
);
width = 536;
}
);
unicode = 110;
},
{
glyphname = o;
lastChange = "2025-05-30 20:08:44 +0000";
layers = (
{
hints = (
{
name = _corner.round;
origin = (0,3);
type = Corner;
},
{
name = _corner.round;
origin = (0,0);
type = Corner;
},
{
name = _corner.round;
options = 2;
origin = (0,1);
scale = (-1,1);
type = Corner;
},
{
name = _corner.round;
options = 2;
origin = (0,2);
scale = (-1,1);
type = Corner;
}
);
layerId = m01;
shapes = (
{
closed = 1;
nodes = (
(50,500,l),
(50,0,l),
(486,0,l),
(486,500,l)
);
},
{
closed = 1;
nodes = (
(130,465,l),
(95,440,l),
(441,440,l),
(406,465,l),
(406,35,l),
(441,60,l),
(95,60,l),
(130,35,l)
);
}
);
width = 536;
}
);
unicode = 111;
},
{
glyphname = p;
lastChange = "2025-05-30 20:09:06 +0000";
layers = (
{
hints = (
{
name = _corner.round;
origin = (0,2);
type = Corner;
},
{
name = _corner.round;
origin = (0,1);
type = Corner;
}
);
layerId = m01;
shapes = (
{
closed = 1;
nodes = (
(89,0,l),
(486,0,l),
(486,500,l),
(50,500,l),
(50,-200,l),
(130,-200,l),
(130,475,l),
(89,440,l),
(441,440,l),
(406,475,l),
(406,25,l),
(441,60,l),
(89,60,l)
);
}
);
width = 536;
}
);
unicode = 112;
},
{
glyphname = q;
lastChange = "2025-05-30 20:09:38 +0000";
layers = (
{
hints = (
{
name = _corner.round;
origin = (0,4);
type = Corner;
},
{
name = _corner.round;
origin = (0,3);
type = Corner;
}
);
layerId = m01;
shapes = (
{
closed = 1;
nodes = (
(406,-200,l),
(486,-200,l),
(486,500,l),
(50,500,l),
(50,0,l),
(448,1,l),
(448,61,l),
(95,60,l),
(130,15,l),
(130,475,l),
(95,440,l),
(448,440,l),
(406,475,l)
);
}
);
width = 536;
}
);
unicode = 113;
},
{
glyphname = r;
lastChange = "2025-05-30 20:09:52 +0000";
layers = (
{
hints = (
{
name = _corner.round;
origin = (0,9);
type = Corner;
}
);
layerId = m01;
shapes = (
{
closed = 1;
nodes = (
(50,500,l),
(50,0,l),
(130,0,l),
(130,471,l),
(85,440,l),
(441,440,l),
(406,471,l),
(406,354,l),
(486,354,l),
(486,500,l)
);
}
);
width = 536;
}
);
unicode = 114;
},
{
glyphname = s;
lastChange = "2025-05-30 20:10:07 +0000";
layers = (
{
hints = (
{
name = _corner.round;
origin = (0,8);
type = Corner;
},
{
name = _corner.round;
options = 2;
origin = (0,9);
scale = (-1,1);
type = Corner;
},
{
name = _corner.round;
origin = (0,1);
type = Corner;
},
{
name = _corner.round;
options = 2;
origin = (0,0);
scale = (-1,1);
type = Corner;
}
);
layerId = m01;
shapes = (
{
closed = 1;
nodes = (
(50,500,l),
(50,289,l),
(441,289,l),
(406,324,l),
(406,25,l),
(441,60,l),
(51,60,l),
(51,0,l),
(486,0,l),
(486,349,l),
(95,349,l),
(130,314,l),
(130,475,l),
(95,440,l),
(486,440,l),
(486,500,l)
);
}
);
width = 536;
}
);
unicode = 115;
},
{
glyphname = t;
lastChange = "2025-05-30 20:39:37 +0000";
layers = (
{
hints = (
{
name = _corner.round;
origin = (0,1);
type = Corner;
}
);
layerId = m01;
shapes = (
{
closed = 1;
nodes = (
(208,700,l),
(208,0,l),
(486,0,l),
(486,60,l),
(246,60,l),
(288,25,l),
(288,700,l)
);
},
{
closed = 1;
nodes = (
(30,440,l),
(466,440,l),
(466,500,l),
(30,500,l)
);
}
);
width = 536;
}
);
unicode = 116;
},
{
glyphname = u;
lastChange = "2025-05-30 20:10:29 +0000";
layers = (
{
hints = (
{
name = _corner.round;
origin = (0,9);
type = Corner;
}
);
layerId = m01;
shapes = (
{
closed = 1;
nodes = (
(486,0,l),
(486,500,l),
(406,500,l),
(406,25,l),
(451,60,l),
(95,60,l),
(130,25,l),
(130,500,l),
(50,500,l),
(50,0,l)
);
}
);
width = 536;
}
);
unicode = 117;
},
{
glyphname = v;
lastChange = "2025-05-30 20:11:05 +0000";
layers = (
{
layerId = m01;
shapes = (
{
closed = 1;
nodes = (
(334,0,l),
(486,500,l),
(424,500,l),
(279,25,l),
(291,22,l),
(134,500,l),
(50,500,l),
(214,0,l)
);
}
);
width = 536;
}
);
unicode = 118;
},
{
glyphname = w;
lastChange = "2025-05-30 20:12:16 +0000";
layers = (
{
hints = (
{
name = _corner.round;
origin = (1,0);
type = Corner;
},
{
name = _corner.round;
origin = (0,0);
scale = (0.75,0.75);
type = Corner;
},
{
name = _corner.round;
origin = (0,0);
type = Corner;
},
{
name = _corner.round;
origin = (0,0);
type = Corner;
},
{
name = _corner.round;
origin = (0,0);
scale = (0.75,0.75);
type = Corner;
},
{
name = _corner.round;
origin = (1,6);
scale = (0.75,0.75);
type = Corner;
}
);
layerId = m01;
shapes = (
{
closed = 1;
nodes = (
(278,0,l),
(278,60,l),
(61,60,l),
(110,35,l),
(110,500,l),
(30,500,l),
(30,0,l)
);
},
{
closed = 1;
nodes = (
(516,0,l),
(516,500,l),
(436,500,l),
(436,35,l),
(471,60,l),
(278,60,l),
(278,0,l)
);
},
{
closed = 1;
nodes = (
(310,460,l),
(250,460,l),
(248,35,l),
(308,35,l)
);
}
);
width = 536;
}
);
unicode = 119;
},
{
glyphname = x;
lastChange = "2025-05-30 20:13:29 +0000";
layers = (
{
layerId = m01;
shapes = (
{
closed = 1;
nodes = (
(62,500,l),
(378,0,l),
(473,0,l),
(157,500,l)
);
},
{
closed = 1;
nodes = (
(307,257,l),
(461,500,l),
(390,500,l),
(236,257,l)
);
},
{
closed = 1;
nodes = (
(220,257,l),
(58,0,l),
(129,0,l),
(291,257,l)
);
}
);
width = 536;
}
);
unicode = 120;
},
{
glyphname = y;
lastChange = "2025-05-30 20:13:55 +0000";
layers = (
{
hints = (
{
name = _corner.round;
origin = (0,5);
type = Corner;
},
{
name = _corner.round;
origin = (1,4);
type = Corner;
}
);
layerId = m01;
shapes = (
{
closed = 1;
nodes = (
(447,60,l),
(86,60,l),
(131,25,l),
(130,500,l),
(50,500,l),
(51,0,l),
(447,0,l)
);
},
{
closed = 1;
nodes = (
(406,-175,l),
(447,-140,l),
(50,-140,l),
(50,-200,l),
(486,-200,l),
(486,500,l),
(406,500,l)
);
}
);
width = 536;
}
);
unicode = 121;
},
{
glyphname = z;
lastChange = "2025-05-30 20:14:36 +0000";
layers = (
{
layerId = m01;
shapes = (
{
closed = 1;
nodes = (
(50,0,l),
(496,0,l),
(496,60,l),
(115,60,l),
(125,25,l),
(480,440,l),
(480,500,l),
(70,500,l),
(70,440,l),
(411,440,l),
(405,475,l),
(50,60,l)
);
}
);
width = 536;
}
);
unicode = 122;
},
{
glyphname = zero;
lastChange = "2025-05-30 20:14:51 +0000";
layers = (
{
hints = (
{
name = _corner.round;
origin = (0,3);
type = Corner;
},
{
name = _corner.round;
origin = (3,2);
type = Corner;
},
{
name = _corner.round;
origin = (3,1);
type = Corner;
},
{
name = _corner.round;
origin = (0,0);
type = Corner;
}
);
layerId = m01;
shapes = (
{
closed = 1;
nodes = (
(50,0,l),
(130,0,l),
(130,700,l),
(50,700,l)
);
},
{
closed = 1;
nodes = (
(117,640,l),
(426,640,l),
(426,700,l),
(117,700,l)
);
},
{
closed = 1;
nodes = (
(117,0,l),
(426,0,l),
(426,60,l),
(117,60,l)
);
},
{
closed = 1;
nodes = (
(406,0,l),
(486,0,l),
(486,700,l),
(406,700,l)
);
},
{
closed = 1;
nodes = (
(58,100,l),
(131,100,l),
(481,600,l),
(408,600,l)
);
}
);
width = 536;
}
);
unicode = 48;
},
{
glyphname = one;
lastChange = "2025-05-30 20:15:06 +0000";
layers = (
{
layerId = m01;
shapes = (
{
closed = 1;
nodes = (
(50,60,l),
(50,0,l),
(486,0,l),
(486,60,l)
);
},
{
closed = 1;
nodes = (
(228,28,l),
(308,28,l),
(308,700,l),
(228,700,l)
);
},
{
closed = 1;
nodes = (
(118,574,l),
(261,649,l),
(228,700,l),
(87,626,l)
);
}
);
width = 536;
}
);
unicode = 49;
},
{
glyphname = two;
lastChange = "2025-05-30 20:16:16 +0000";
layers = (
{
hints = (
{
name = _corner.round;
origin = (1,2);
type = Corner;
},
{
name = _corner.round;
origin = (2,0);
type = Corner;
},
{
name = _corner.round;
origin = (2,1);
type = Corner;
},
{
name = _corner.round;
origin = (1,1);
type = Corner;
}
);
layerId = m01;
shapes = (
{
closed = 1;
nodes = (
(111,383,l),
(420,383,l),
(420,443,l),
(111,443,l)
);
},
{
closed = 1;
nodes = (
(406,383,l),
(486,383,l),
(486,700,l),
(406,700,l)
);
},
{
closed = 1;
nodes = (
(50,443,l),
(50,0,l),
(130,0,l),
(130,443,l)
);
},
{
closed = 1;
nodes = (
(77,640,l),
(419,640,l),
(419,700,l),
(77,700,l)
);
},
{
closed = 1;
nodes = (
(112,0,l),
(486,0,l),
(486,60,l),
(112,60,l)
);
}
);
width = 536;
}
);
unicode = 50;
},
{
glyphname = three;
lastChange = "2025-05-30 20:16:55 +0000";
layers = (
{
hints = (
{
name = _corner.round;
origin = (1,1);
type = Corner;
},
{
name = _corner.round;
origin = (1,2);
type = Corner;
},
{
name = _corner.round;
origin = (1,2);
type = Corner;
},
{
name = _corner.round;
origin = (2,2);
type = Corner;
},
{
name = _corner.round;
origin = (1,2);
type = Corner;
},
{
name = _corner.round;
options = 2;
origin = (2,2);
scale = (-1,1);
type = Corner;
},
{
name = _corner.round;
origin = (2,1);
type = Corner;
}
);
layerId = m01;
shapes = (
{
closed = 1;
nodes = (
(138,383,l),
(420,383,l),
(420,443,l),
(138,443,l)
);
},
{
closed = 1;
nodes = (
(406,0,l),
(486,0,l),
(486,413,l),
(406,413,l)
);
},
{
closed = 1;
nodes = (
(406,413,l),
(486,413,l),
(486,700,l),
(406,700,l)
);
},
{
closed = 1;
nodes = (
(77,640,l),
(416,640,l),
(416,700,l),
(77,700,l)
);
},
{
closed = 1;
nodes = (
(50,0,l),
(422,0,l),
(422,60,l),
(50,60,l)
);
}
);
width = 536;
}
);
unicode = 51;
},
{
glyphname = four;
lastChange = "2025-05-30 20:17:33 +0000";
layers = (
{
layerId = m01;
shapes = (
{
closed = 1;
nodes = (
(308,0,l),
(388,0,l),
(388,700,l),
(308,700,l)
);
},
{
closed = 1;
nodes = (
(30,153,l),
(506,153,l),
(506,213,l),
(30,213,l)
);
},
{
closed = 1;
nodes = (
(288,700,l),
(30,213,l),
(98,213,l),
(356,700,l)
);
}
);
width = 536;
}
);
unicode = 52;
},
{
glyphname = five;
lastChange = "2025-05-30 20:18:46 +0000";
layers = (
{
hints = (
{
name = _corner.round;
origin = (1,1);
type = Corner;
},
{
name = _corner.round;
origin = (1,2);
type = Corner;
},
{
name = _corner.round;
origin = (1,2);
type = Corner;
},
{
name = _corner.round;
origin = (2,1);
type = Corner;
}
);
layerId = m01;
shapes = (
{
closed = 1;
nodes = (
(111,383,l),
(420,383,l),
(420,443,l),
(111,443,l)
);
},
{
closed = 1;
nodes = (
(406,0,l),
(486,0,l),
(486,443,l),
(406,443,l)
);
},
{
closed = 1;
nodes = (
(50,700,l),
(50,383,l),
(130,383,l),
(130,700,l)
);
},
{
closed = 1;
nodes = (
(111,640,l),
(466,640,l),
(466,700,l),
(111,700,l)
);
},
{
closed = 1;
nodes = (
(50,0,l),
(425,0,l),
(425,60,l),
(50,60,l)
);
}
);
width = 536;
}
);
unicode = 53;
},
{
glyphname = six;
lastChange = "2025-05-30 20:18:31 +0000";
layers = (
{
hints = (
{
name = _corner.round;
origin = (1,1);
type = Corner;
},
{
name = _corner.round;
origin = (1,2);
type = Corner;
},
{
name = _corner.round;
origin = (2,0);
type = Corner;
},
{
name = _corner.round;
origin = (2,1);
type = Corner;
},
{
name = _corner.round;
origin = (2,0);
type = Corner;
}
);
layerId = m01;
shapes = (
{
closed = 1;
nodes = (
(111,383,l),
(420,383,l),
(420,443,l),
(111,443,l)
);
},
{
closed = 1;
nodes = (
(406,0,l),
(486,0,l),
(486,443,l),
(406,443,l)
);
},
{
closed = 1;
nodes = (
(50,700,l),
(50,0,l),
(130,0,l),
(130,700,l)
);
},
{
closed = 1;
nodes = (
(118,640,l),
(446,640,l),
(446,700,l),
(118,700,l)
);
},
{
closed = 1;
nodes = (
(120,0,l),
(415,0,l),
(415,60,l),
(120,60,l)
);
}
);
width = 536;
}
);
unicode = 54;
},
{
glyphname = seven;
lastChange = "2025-05-30 20:18:58 +0000";
layers = (
{
layerId = m01;
shapes = (
{
closed = 1;
nodes = (
(50,640,l),
(466,640,l),
(486,700,l),
(50,700,l)
);
},
{
closed = 1;
nodes = (
(155,0,l),
(240,0,l),
(486,700,l),
(401,700,l)
);
}
);
width = 536;
}
);
unicode = 55;
},
{
glyphname = eight;
lastChange = "2025-05-30 20:20:22 +0000";
layers = (
{
hints = (
{
name = _corner.round;
origin = (1,2);
type = Corner;
},
{
name = _corner.round;
origin = (1,2);
type = Corner;
},
{
name = _corner.round;
origin = (3,0);
type = Corner;
},
{
name = _corner.round;
origin = (3,0);
type = Corner;
},
{
name = _corner.round;
origin = (1,2);
type = Corner;
},
{
name = _corner.round;
origin = (3,0);
type = Corner;
},
{
name = _corner.round;
origin = (4,0);
scale = (0.75,0.75);
type = Corner;
},
{
name = _corner.round;
origin = (2,1);
scale = (0.75,0.75);
type = Corner;
},
{
name = _corner.round;
origin = (4,1);
scale = (0.75,0.75);
type = Corner;
},
{
name = _corner.round;
origin = (2,2);
scale = (0.75,0.75);
type = Corner;
},
{
name = _corner.round;
origin = (3,1);
type = Corner;
},
{
name = _corner.round;
origin = (1,1);
type = Corner;
}
);
layerId = m01;
shapes = (
{
closed = 1;
nodes = (
(130,383,l),
(406,383,l),
(406,443,l),
(130,443,l)
);
},
{
closed = 1;
nodes = (
(406,0,l),
(486,0,l),
(486,413,l),
(406,413,l)
);
},
{
closed = 1;
nodes = (
(386,413,l),
(466,413,l),
(466,700,l),
(386,700,l)
);
},
{
closed = 1;
nodes = (
(50,413,l),
(50,0,l),
(130,0,l),
(130,413,l)
);
},
{
closed = 1;
nodes = (
(70,700,l),
(70,413,l),
(150,413,l),
(150,700,l)
);
},
{
closed = 1;
nodes = (
(138,640,l),
(391,640,l),
(391,700,l),
(138,700,l)
);
},
{
closed = 1;
nodes = (
(122,0,l),
(415,0,l),
(415,60,l),
(122,60,l)
);
}
);
width = 536;
}
);
unicode = 56;
},
{
glyphname = nine;
lastChange = "2025-05-30 20:20:50 +0000";
layers = (
{
hints = (
{
name = _corner.round;
origin = (1,1);
type = Corner;
},
{
name = _corner.round;
origin = (1,2);
type = Corner;
},
{
name = _corner.round;
origin = (2,0);
type = Corner;
},
{
name = _corner.round;
origin = (2,1);
type = Corner;
}
);
layerId = m01;
shapes = (
{
closed = 1;
nodes = (
(111,383,l),
(420,383,l),
(420,443,l),
(111,443,l)
);
},
{
closed = 1;
nodes = (
(406,0,l),
(486,0,l),
(486,700,l),
(406,700,l)
);
},
{
closed = 1;
nodes = (
(50,700,l),
(50,383,l),
(130,383,l),
(130,700,l)
);
},
{
closed = 1;
nodes = (
(118,640,l),
(420,640,l),
(420,700,l),
(118,700,l)
);
},
{
closed = 1;
nodes = (
(50,0,l),
(425,0,l),
(425,60,l),
(50,60,l)
);
}
);
width = 536;
}
);
unicode = 57;
},
{
glyphname = period;
lastChange = "2025-05-31 00:53:39 +0000";
layers = (
{
layerId = m01;
shapes = (
{
closed = 1;
nodes = (
(296,0,o),
(318,22,o),
(318,50,cs),
(318,78,o),
(296,100,o),
(268,100,cs),
(240,100,o),
(218,78,o),
(218,50,cs),
(218,22,o),
(240,0,o),
(268,0,cs)
);
}
);
width = 536;
}
);
unicode = 46;
},
{
glyphname = comma;
lastChange = "2025-05-30 20:22:30 +0000";
layers = (
{
hints = (
{
name = _corner.round;
origin = (0,3);
type = Corner;
},
{
name = _corner.round;
origin = (0,1);
type = Corner;
}
);
layerId = m01;
shapes = (
{
closed = 1;
nodes = (
(228,-124,l),
(308,-124,l),
(308,110,l),
(228,110,l)
);
}
);
width = 536;
}
);
unicode = 44;
},
{
glyphname = semicolon;
lastChange = "2025-05-30 20:23:58 +0000";
layers = (
{
guides = (
{
pos = (26,442);
}
);
layerId = m01;
shapes = (
{
closed = 1;
nodes = (
(296,342,o),
(318,364,o),
(318,392,cs),
(318,420,o),
(296,442,o),
(268,442,cs),
(240,442,o),
(218,420,o),
(218,392,cs),
(218,364,o),
(240,342,o),
(268,342,cs)
);
},
{
ref = comma;
}
);
width = 536;
}
);
unicode = 59;
},
{
glyphname = exclam;
lastChange = "2025-05-30 20:24:33 +0000";
layers = (
{
hints = (
{
name = _corner.round;
origin = (0,3);
type = Corner;
},
{
name = _corner.round;
origin = (0,1);
type = Corner;
}
);
layerId = m01;
shapes = (
{
closed = 1;
nodes = (
(243,200,l),
(323,200,l),
(323,700,l),
(243,700,l)
);
},
{
pos = (15,0);
ref = period;
}
);
width = 536;
}
);
unicode = 33;
},
{
glyphname = question;
lastChange = "2025-05-30 20:46:14 +0000";
layers = (
{
hints = (
{
name = _corner.round;
origin = (0,1);
type = Corner;
},
{
name = _corner.round;
origin = (2,1);
type = Corner;
},
{
name = _corner.round;
origin = (2,2);
type = Corner;
},
{
name = _corner.round;
origin = (1,3);
type = Corner;
}
);
layerId = m01;
shapes = (
{
closed = 1;
nodes = (
(200,200,l),
(280,200,l),
(280,383,l),
(200,383,l)
);
},
{
closed = 1;
nodes = (
(200,383,l),
(382,383,l),
(382,443,l),
(200,443,l)
);
},
{
closed = 1;
nodes = (
(373,383,l),
(453,383,l),
(453,700,l),
(373,700,l)
);
},
{
closed = 1;
nodes = (
(84,640,l),
(382,640,l),
(382,700,l),
(84,700,l)
);
},
{
pos = (-28,0);
ref = period;
}
);
width = 536;
}
);
unicode = 63;
},
{
glyphname = bullet;
lastChange = "2025-05-30 20:46:33 +0000";
layers = (
{
layerId = m01;
shapes = (
{
closed = 1;
nodes = (
(318,179,o),
(358,218,o),
(358,269,cs),
(358,319,o),
(318,359,o),
(268,359,cs),
(217,359,o),
(178,319,o),
(178,269,cs),
(178,218,o),
(217,179,o),
(268,179,cs)
);
}
);
width = 536;
}
);
unicode = 8226;
},
{
glyphname = asterisk;
lastChange = "2025-05-29 19:46:23 +0000";
layers = (
{
hints = (
{
name = _corner.round;
origin = (0,1);
type = Corner;
},
{
name = _corner.round;
origin = (0,3);
type = Corner;
},
{
name = _corner.round;
origin = (2,0);
type = Corner;
},
{
name = _corner.round;
origin = (2,2);
type = Corner;
},
{
name = _corner.round;
origin = (1,1);
type = Corner;
},
{
name = _corner.round;
origin = (1,3);
type = Corner;
}
);
layerId = m01;
shapes = (
{
closed = 1;
nodes = (
(238,371,l),
(298,371,l),
(298,716,l),
(238,716,l)
);
},
{
closed = 1;
nodes = (
(134,656,l),
(104,604,l),
(402,431,l),
(432,483,l)
);
},
{
closed = 1;
nodes = (
(134,431,l),
(432,604,l),
(402,656,l),
(104,483,l)
);
}
);
width = 536;
}
);
unicode = 42;
},
{
glyphname = numbersign;
lastChange = "2025-05-30 20:25:03 +0000";
layers = (
{
hints = (
{
name = _corner.round;
origin = (0,1);
type = Corner;
},
{
name = _corner.round;
origin = (0,3);
type = Corner;
},
{
name = _corner.round;
origin = (1,1);
type = Corner;
},
{
name = _corner.round;
origin = (1,3);
type = Corner;
},
{
name = _corner.round;
origin = (2,0);
type = Corner;
},
{
name = _corner.round;
origin = (2,2);
type = Corner;
},
{
name = _corner.round;
origin = (3,0);
type = Corner;
},
{
name = _corner.round;
origin = (3,2);
type = Corner;
}
);
layerId = m01;
shapes = (
{
closed = 1;
nodes = (
(86,-16,l),
(167,-16,l),
(295,716,l),
(214,716,l)
);
},
{
closed = 1;
nodes = (
(306,-16,l),
(387,-16,l),
(515,716,l),
(434,716,l)
);
},
{
closed = 1;
nodes = (
(30,500,l),
(30,440,l),
(570,440,l),
(570,500,l)
);
},
{
closed = 1;
nodes = (
(30,260,l),
(30,200,l),
(570,200,l),
(570,260,l)
);
}
);
width = 600;
}
);
unicode = 35;
},
{
glyphname = slash;
lastChange = "2025-05-30 00:08:28 +0000";
layers = (
{
hints = (
{
name = _corner.round;
origin = (0,3);
type = Corner;
},
{
name = _corner.round;
origin = (0,1);
type = Corner;
}
);
layerId = m01;
shapes = (
{
closed = 1;
nodes = (
(58,-110,l),
(143,-110,l),
(463,800,l),
(378,800,l)
);
}
);
width = 536;
}
);
unicode = 47;
},
{
glyphname = hyphen;
lastChange = "2025-05-29 18:43:35 +0000";
layers = (
{
hints = (
{
name = _corner.round;
origin = (0,3);
type = Corner;
},
{
name = _corner.round;
origin = (0,1);
type = Corner;
}
);
layerId = m01;
shapes = (
{
closed = 1;
nodes = (
(101,257,l),
(434,257,l),
(434,317,l),
(101,317,l)
);
}
);
width = 536;
}
);
unicode = 45;
},
{
glyphname = endash;
lastChange = "2025-05-30 17:27:47 +0000";
layers = (
{
hints = (
{
name = _corner.round;
origin = (0,1);
type = Corner;
},
{
name = _corner.round;
origin = (0,3);
type = Corner;
}
);
layerId = m01;
shapes = (
{
closed = 1;
nodes = (
(50,257,l),
(486,257,l),
(486,317,l),
(50,317,l)
);
}
);
width = 536;
}
);
unicode = 8211;
},
{
glyphname = emdash;
lastChange = "2025-05-30 17:28:07 +0000";
layers = (
{
hints = (
{
name = _corner.round;
origin = (0,1);
type = Corner;
},
{
name = _corner.round;
origin = (0,3);
type = Corner;
}
);
layerId = m01;
shapes = (
{
closed = 1;
nodes = (
(20,257,l),
(516,257,l),
(516,317,l),
(20,317,l)
);
}
);
width = 536;
}
);
unicode = 8212;
},
{
glyphname = underscore;
lastChange = "2025-05-30 17:28:28 +0000";
layers = (
{
hints = (
{
name = _corner.round;
origin = (0,1);
type = Corner;
},
{
name = _corner.round;
origin = (0,3);
type = Corner;
}
);
layerId = m01;
shapes = (
{
closed = 1;
nodes = (
(20,-110,l),
(516,-110,l),
(516,-50,l),
(20,-50,l)
);
}
);
width = 536;
}
);
unicode = 95;
},
{
glyphname = parenleft;
lastChange = "2025-05-30 20:26:56 +0000";
layers = (
{
hints = (
{
name = _corner.round;
origin = (0,11);
type = Corner;
},
{
name = _corner.round;
origin = (0,1);
type = Corner;
},
{
name = _corner.round;
options = 2;
origin = (0,0);
scale = (0.5,0.5);
type = Corner;
}
);
layerId = m01;
shapes = (
{
closed = 1;
nodes = (
(59,345,l),
(169,-110,l),
(427,-110,l),
(427,-50,l),
(196,-50,l),
(249,-95,l),
(141,345,l),
(249,785,l),
(196,740,l),
(427,740,l),
(427,800,l),
(169,800,l)
);
}
);
width = 536;
}
);
unicode = 40;
},
{
glyphname = braceleft;
lastChange = "2025-05-30 00:08:37 +0000";
layers = (
{
hints = (
{
name = _corner.round;
origin = (0,4);
type = Corner;
},
{
name = _corner.round;
origin = (0,4);
type = Corner;
},
{
name = _corner.round;
origin = (0,4);
type = Corner;
},
{
name = _corner.round;
origin = (0,4);
type = Corner;
},
{
name = _corner.round;
origin = (0,6);
type = Corner;
},
{
name = _corner.round;
origin = (0,4);
type = Corner;
},
{
name = _corner.round;
origin = (2,1);
type = Corner;
},
{
name = _corner.round;
origin = (2,6);
type = Corner;
}
);
layerId = m01;
shapes = (
{
closed = 1;
nodes = (
(427,-110,l),
(427,-50,l),
(224,-50,l),
(249,-95,l),
(249,345,l),
(169,345,l),
(169,-110,l)
);
},
{
closed = 1;
nodes = (
(109,295,l),
(197,295,l),
(197,395,l),
(109,395,l)
);
},
{
closed = 1;
nodes = (
(169,345,l),
(249,345,l),
(249,785,l),
(224,740,l),
(427,740,l),
(427,800,l),
(169,800,l)
);
}
);
width = 536;
}
);
unicode = 123;
},
{
glyphname = bracketleft;
lastChange = "2025-05-30 00:08:48 +0000";
layers = (
{
layerId = m01;
shapes = (
{
closed = 1;
nodes = (
(139,-110,l),
(397,-110,l),
(397,-50,l),
(184,-50,l),
(219,-80,l),
(219,770,l),
(184,740,l),
(397,740,l),
(397,800,l),
(139,800,l)
);
}
);
width = 536;
}
);
unicode = 91;
},
{
glyphname = guilsinglleft;
lastChange = "2025-05-30 16:58:37 +0000";
layers = (
{
hints = (
{
name = _corner.round;
origin = (0,3);
type = Corner;
},
{
name = _corner.round;
origin = (0,1);
type = Corner;
},
{
name = _corner.round;
origin = (0,5);
type = Corner;
}
);
layerId = m01;
shapes = (
{
closed = 1;
nodes = (
(354,42,l),
(397,84,l),
(214,267,l),
(407,460,l),
(364,502,l),
(129,268,l)
);
}
);
width = 536;
}
);
unicode = 8249;
},
{
glyphname = baht;
lastChange = "2025-05-30 17:33:51 +0000";
layers = (
{
hints = (
{
name = _corner.round;
origin = (1,1);
type = Corner;
},
{
name = _corner.round;
origin = (1,3);
type = Corner;
}
);
layerId = m01;
shapes = (
{
ref = B;
},
{
closed = 1;
nodes = (
(238,-100,l),
(298,-100,l),
(298,800,l),
(238,800,l)
);
}
);
width = 536;
}
);
unicode = 3647;
},
{
glyphname = at;
lastChange = "2025-05-30 15:38:36 +0000";
layers = (
{
hints = (
{
name = _corner.round;
origin = (0,3);
type = Corner;
},
{
name = _corner.round;
origin = (0,0);
type = Corner;
},
{
name = _corner.round;
origin = (0,1);
type = Corner;
},
{
name = _corner.round;
origin = (4,1);
type = Corner;
},
{
name = _corner.round;
origin = (2,0);
type = Corner;
},
{
name = _corner.round;
origin = (4,2);
type = Corner;
},
{
name = _corner.round;
origin = (2,3);
type = Corner;
}
);
layerId = m01;
shapes = (
{
closed = 1;
nodes = (
(163,381,l),
(163,114,l),
(376,114,l),
(376,501,l),
(93,501,l),
(93,451,l),
(316,451,l),
(296,481,l),
(296,360,l),
(316,381,l)
);
},
{
closed = 1;
nodes = (
(243,352,l),
(223,331,l),
(316,331,l),
(296,352,l),
(296,141,l),
(316,164,l),
(223,164,l),
(243,141,l)
);
},
{
closed = 1;
nodes = (
(33,-16,l),
(113,-16,l),
(113,501,l),
(33,501,l)
);
},
{
closed = 1;
nodes = (
(93,-16,l),
(446,-16,l),
(446,34,l),
(93,34,l)
);
},
{
closed = 1;
nodes = (
(426,-16,l),
(506,-16,l),
(506,631,l),
(426,631,l)
);
},
{
closed = 1;
nodes = (
(33,581,l),
(446,581,l),
(446,631,l),
(33,631,l)
);
}
);
width = 536;
}
);
unicode = 64;
},
{
glyphname = ampersand;
lastChange = "2025-05-30 20:26:04 +0000";
layers = (
{
hints = (
{
name = _corner.round;
origin = (2,0);
type = Corner;
},
{
name = _corner.round;
origin = (2,0);
type = Corner;
},
{
name = _corner.round;
origin = (2,0);
type = Corner;
},
{
name = _corner.round;
origin = (3,0);
type = Corner;
},
{
name = _corner.round;
origin = (3,1);
type = Corner;
},
{
name = _corner.round;
origin = (2,1);
type = Corner;
}
);
layerId = m01;
shapes = (
{
closed = 1;
nodes = (
(116,383,l),
(536,383,l),
(536,443,l),
(116,443,l)
);
},
{
closed = 1;
nodes = (
(336,0,l),
(416,0,l),
(416,516,l),
(336,516,l)
);
},
{
closed = 1;
nodes = (
(50,413,l),
(50,0,l),
(130,0,l),
(130,413,l)
);
},
{
closed = 1;
nodes = (
(50,700,l),
(50,413,l),
(130,413,l),
(130,700,l)
);
},
{
closed = 1;
nodes = (
(118,640,l),
(376,640,l),
(376,700,l),
(118,700,l)
);
},
{
closed = 1;
nodes = (
(122,0,l),
(536,0,l),
(536,60,l),
(122,60,l)
);
}
);
width = 536;
}
);
unicode = 38;
},
{
glyphname = registered;
lastChange = "2025-05-31 01:18:14 +0000";
layers = (
{
hints = (
{
name = _corner.round;
origin = (2,7);
scale = (0.3,0.4);
type = Corner;
},
{
name = _corner.round;
options = 2;
origin = (2,8);
scale = (0.3,0.4);
type = Corner;
},
{
name = _corner.round;
origin = (2,7);
type = Corner;
},
{
name = _corner.round;
origin = (4,2);
scale = (0.3,0.4);
type = Corner;
}
);
layerId = m01;
shapes = (
{
closed = 1;
nodes = (
(396,290,o),
(499,393,o),
(499,521,cs),
(499,649,o),
(396,752,o),
(268,752,cs),
(140,752,o),
(37,649,o),
(37,521,cs),
(37,393,o),
(140,290,o),
(268,290,cs)
);
},
{
closed = 1;
nodes = (
(167,340,o),
(87,420,o),
(87,521,cs),
(87,622,o),
(167,702,o),
(268,702,cs),
(369,702,o),
(449,622,o),
(449,521,c),
(449,420,o),
(369,340,o),
(268,340,cs)
);
},
{
closed = 1;
nodes = (
(185,400,l),
(225,400,l),
(225,618,l),
(202,606,l),
(321,606,l),
(311,618,l),
(311,526,l),
(351,526,l),
(351,630,l),
(185,630,l)
);
},
{
closed = 1;
nodes = (
(202,514,l),
(325,514,l),
(325,538,l),
(202,538,l)
);
},
{
closed = 1;
nodes = (
(311,400,l),
(351,400,l),
(351,526,l),
(311,526,l)
);
}
);
width = 536;
}
);
unicode = 174;
},
{
glyphname = degree;
lastChange = "2025-05-31 00:55:14 +0000";
layers = (
{
layerId = m01;
shapes = (
{
closed = 1;
nodes = (
(350,391,o),
(417,458,o),
(417,540,cs),
(417,622,o),
(350,689,o),
(268,689,cs),
(186,689,o),
(119,622,o),
(119,540,cs),
(119,458,o),
(186,391,o),
(268,391,cs)
);
},
{
closed = 1;
nodes = (
(219,451,o),
(179,491,o),
(179,540,cs),
(179,589,o),
(219,629,o),
(268,629,cs),
(317,629,o),
(357,589,o),
(357,540,cs),
(357,491,o),
(317,451,o),
(268,451,cs)
);
}
);
width = 536;
}
);
unicode = 176;
},
{
glyphname = bar;
lastChange = "2025-05-30 00:09:17 +0000";
layers = (
{
hints = (
{
name = _corner.round;
origin = (0,3);
type = Corner;
},
{
name = _corner.round;
origin = (0,1);
type = Corner;
}
);
layerId = m01;
shapes = (
{
closed = 1;
nodes = (
(218,-110,l),
(298,-110,l),
(298,800,l),
(218,800,l)
);
}
);
width = 536;
}
);
unicode = 124;
},
{
glyphname = brokenbar;
lastChange = "2025-05-30 17:35:48 +0000";
layers = (
{
hints = (
{
name = _corner.round;
origin = (0,1);
type = Corner;
},
{
name = _corner.round;
origin = (0,3);
type = Corner;
},
{
name = _corner.round;
origin = (1,1);
type = Corner;
},
{
name = _corner.round;
origin = (1,3);
type = Corner;
}
);
layerId = m01;
shapes = (
{
closed = 1;
nodes = (
(218,385,l),
(298,385,l),
(298,800,l),
(218,800,l)
);
},
{
closed = 1;
nodes = (
(218,-110,l),
(298,-110,l),
(298,305,l),
(218,305,l)
);
}
);
width = 600;
}
);
unicode = 166;
},
{
glyphname = dagger;
lastChange = "2025-05-30 17:37:51 +0000";
layers = (
{
hints = (
{
name = _corner.round;
origin = (0,1);
type = Corner;
},
{
name = _corner.round;
origin = (0,3);
type = Corner;
},
{
name = _corner.round;
origin = (1,1);
type = Corner;
},
{
name = _corner.round;
origin = (1,3);
type = Corner;
}
);
layerId = m01;
shapes = (
{
closed = 1;
nodes = (
(228,276,l),
(308,276,l),
(308,751,l),
(228,751,l)
);
},
{
closed = 1;
nodes = (
(101,566,l),
(434,566,l),
(434,626,l),
(101,626,l)
);
}
);
width = 536;
}
);
unicode = 8224;
},
{
glyphname = daggerdbl;
lastChange = "2025-05-30 17:37:35 +0000";
layers = (
{
hints = (
{
name = _corner.round;
origin = (0,1);
type = Corner;
},
{
name = _corner.round;
origin = (0,3);
type = Corner;
},
{
name = _corner.round;
origin = (1,1);
type = Corner;
},
{
name = _corner.round;
origin = (1,3);
type = Corner;
},
{
name = _corner.round;
origin = (2,1);
type = Corner;
},
{
name = _corner.round;
origin = (2,3);
type = Corner;
}
);
layerId = m01;
shapes = (
{
closed = 1;
nodes = (
(228,276,l),
(308,276,l),
(308,751,l),
(228,751,l)
);
},
{
closed = 1;
nodes = (
(101,566,l),
(434,566,l),
(434,626,l),
(101,626,l)
);
},
{
closed = 1;
nodes = (
(101,406,l),
(434,406,l),
(434,466,l),
(101,466,l)
);
}
);
width = 536;
}
);
unicode = 8225;
},
{
glyphname = cent;
lastChange = "2025-05-30 20:47:29 +0000";
layers = (
{
hints = (
{
name = _corner.round;
origin = (0,0);
type = Corner;
},
{
name = _corner.round;
origin = (0,1);
type = Corner;
},
{
name = _corner.round;
origin = (1,1);
type = Corner;
},
{
name = _corner.round;
origin = (1,3);
type = Corner;
}
);
layerId = m01;
shapes = (
{
closed = 1;
nodes = (
(50,600,l),
(50,100,l),
(486,100,l),
(486,160,l),
(95,160,l),
(130,125,l),
(130,575,l),
(95,540,l),
(486,540,l),
(486,600,l)
);
},
{
closed = 1;
nodes = (
(258,-16,l),
(318,-16,l),
(318,716,l),
(258,716,l)
);
}
);
width = 536;
}
);
unicode = 162;
},
{
glyphname = dollar;
lastChange = "2025-05-30 20:25:17 +0000";
layers = (
{
hints = (
{
name = _corner.round;
origin = (1,3);
type = Corner;
},
{
name = _corner.round;
origin = (1,1);
type = Corner;
}
);
layerId = m01;
shapes = (
{
ref = S;
},
{
closed = 1;
nodes = (
(238,-100,l),
(298,-100,l),
(298,800,l),
(238,800,l)
);
}
);
width = 536;
}
);
unicode = 36;
},
{
glyphname = euro;
lastChange = "2025-05-30 17:41:50 +0000";
layers = (
{
hints = (
{
name = _corner.round;
origin = (1,1);
type = Corner;
},
{
name = _corner.round;
origin = (1,3);
type = Corner;
},
{
name = _corner.round;
origin = (2,1);
type = Corner;
},
{
name = _corner.round;
origin = (2,3);
type = Corner;
}
);
layerId = m01;
shapes = (
{
pos = (37,0);
ref = C;
},
{
closed = 1;
nodes = (
(20,383,l),
(363,383,l),
(363,443,l),
(20,443,l)
);
},
{
closed = 1;
nodes = (
(20,243,l),
(363,243,l),
(363,303,l),
(20,303,l)
);
}
);
width = 536;
}
);
unicode = 8364;
},
{
glyphname = ruble;
lastChange = "2025-05-30 17:53:54 +0000";
layers = (
{
hints = (
{
name = _corner.round;
origin = (1,1);
type = Corner;
},
{
name = _corner.round;
origin = (1,3);
type = Corner;
},
{
name = _corner.round;
origin = (2,1);
type = Corner;
},
{
name = _corner.round;
origin = (2,3);
type = Corner;
}
);
layerId = m01;
shapes = (
{
pos = (30,0);
ref = P;
},
{
closed = 1;
nodes = (
(10,243,l),
(417,243,l),
(417,303,l),
(10,303,l)
);
},
{
closed = 1;
nodes = (
(10,383,l),
(446,383,l),
(446,443,l),
(10,443,l)
);
}
);
width = 536;
}
);
unicode = 8381;
},
{
glyphname = won;
lastChange = "2025-05-30 17:52:08 +0000";
layers = (
{
hints = (
{
name = _corner.round;
origin = (1,1);
type = Corner;
},
{
name = _corner.round;
origin = (1,3);
type = Corner;
}
);
layerId = m01;
shapes = (
{
closed = 1;
nodes = (
(168,0,l),
(279,361,l),
(257,361,l),
(368,0,l),
(486,0,l),
(486,700,l),
(406,700,l),
(406,30,l),
(416,33,l),
(299,418,l),
(237,418,l),
(119,30,l),
(130,30,l),
(130,700,l),
(50,700,l),
(50,0,l)
);
},
{
closed = 1;
nodes = (
(0,197,l),
(536,197,l),
(536,257,l),
(0,257,l)
);
}
);
width = 536;
}
);
unicode = 8361;
},
{
glyphname = yen;
lastChange = "2025-05-30 20:47:54 +0000";
layers = (
{
hints = (
{
name = _corner.round;
origin = (1,1);
type = Corner;
},
{
name = _corner.round;
origin = (1,3);
type = Corner;
},
{
name = _corner.round;
origin = (2,1);
type = Corner;
},
{
name = _corner.round;
origin = (2,3);
type = Corner;
}
);
layerId = m01;
shapes = (
{
ref = Y;
},
{
closed = 1;
nodes = (
(50,300,l),
(486,300,l),
(486,360,l),
(50,360,l)
);
},
{
closed = 1;
nodes = (
(50,180,l),
(486,180,l),
(486,240,l),
(50,240,l)
);
}
);
width = 536;
}
);
unicode = 165;
},
{
glyphname = plus;
lastChange = "2025-05-30 17:43:59 +0000";
layers = (
{
hints = (
{
name = _corner.round;
origin = (1,0);
type = Corner;
},
{
name = _corner.round;
origin = (1,2);
type = Corner;
},
{
name = _corner.round;
origin = (0,0);
type = Corner;
},
{
name = _corner.round;
origin = (0,2);
type = Corner;
}
);
layerId = m01;
shapes = (
{
closed = 1;
nodes = (
(50,257,l),
(486,257,l),
(486,317,l),
(50,317,l)
);
},
{
closed = 1;
nodes = (
(238,505,l),
(238,69,l),
(298,69,l),
(298,505,l)
);
}
);
width = 536;
}
);
unicode = 43;
},
{
glyphname = minus;
lastChange = "2025-05-30 17:42:35 +0000";
layers = (
{
hints = (
{
name = _corner.round;
origin = (0,1);
type = Corner;
},
{
name = _corner.round;
origin = (0,3);
type = Corner;
}
);
layerId = m01;
shapes = (
{
closed = 1;
nodes = (
(50,257,l),
(486,257,l),
(486,317,l),
(50,317,l)
);
}
);
width = 536;
}
);
unicode = 8722;
},
{
glyphname = multiply;
lastChange = "2025-05-30 17:44:19 +0000";
layers = (
{
hints = (
{
name = _corner.round;
origin = (0,0);
type = Corner;
},
{
name = _corner.round;
origin = (0,2);
type = Corner;
},
{
name = _corner.round;
origin = (1,0);
type = Corner;
},
{
name = _corner.round;
origin = (1,2);
type = Corner;
}
);
layerId = m01;
shapes = (
{
closed = 1;
nodes = (
(135,112,l),
(443,420,l),
(401,462,l),
(93,154,l)
);
},
{
closed = 1;
nodes = (
(93,420,l),
(401,112,l),
(443,154,l),
(135,462,l)
);
}
);
width = 536;
}
);
unicode = 215;
},
{
glyphname = divide;
lastChange = "2025-05-30 20:48:32 +0000";
layers = (
{
hints = (
{
name = _corner.round;
origin = (0,1);
type = Corner;
},
{
name = _corner.round;
origin = (0,3);
type = Corner;
}
);
layerId = m01;
shapes = (
{
closed = 1;
nodes = (
(50,257,l),
(486,257,l),
(486,317,l),
(50,317,l)
);
},
{
closed = 1;
nodes = (
(296,397,o),
(318,419,o),
(318,447,cs),
(318,475,o),
(296,497,o),
(268,497,cs),
(240,497,o),
(218,475,o),
(218,447,cs),
(218,419,o),
(240,397,o),
(268,397,cs)
);
},
{
closed = 1;
nodes = (
(296,77,o),
(318,99,o),
(318,127,cs),
(318,155,o),
(296,177,o),
(268,177,cs),
(240,177,o),
(218,155,o),
(218,127,cs),
(218,99,o),
(240,77,o),
(268,77,cs)
);
}
);
width = 536;
}
);
unicode = 247;
},
{
glyphname = equal;
lastChange = "2025-05-30 17:46:23 +0000";
layers = (
{
hints = (
{
name = _corner.round;
origin = (0,1);
type = Corner;
},
{
name = _corner.round;
origin = (0,3);
type = Corner;
},
{
name = _corner.round;
origin = (1,1);
type = Corner;
},
{
name = _corner.round;
origin = (1,3);
type = Corner;
}
);
layerId = m01;
shapes = (
{
closed = 1;
nodes = (
(50,138,l),
(486,138,l),
(486,198,l),
(50,198,l)
);
},
{
closed = 1;
nodes = (
(50,358,l),
(486,358,l),
(486,418,l),
(50,418,l)
);
}
);
width = 536;
}
);
unicode = 61;
},
{
glyphname = notequal;
lastChange = "2025-05-30 17:49:56 +0000";
layers = (
{
hints = (
{
name = _corner.round;
origin = (1,1);
type = Corner;
},
{
name = _corner.round;
origin = (1,3);
type = Corner;
}
);
layerId = m01;
shapes = (
{
ref = equal;
},
{
closed = 1;
nodes = (
(335,549,l),
(145,27,l),
(201,7,l),
(391,529,l)
);
}
);
width = 536;
}
);
unicode = 8800;
},
{
glyphname = less;
lastChange = "2025-05-30 20:49:07 +0000";
layers = (
{
hints = (
{
name = _corner.round;
origin = (0,2);
type = Corner;
},
{
name = _corner.round;
origin = (0,5);
type = Corner;
}
);
layerId = m01;
shapes = (
{
closed = 1;
nodes = (
(50,233,l),
(486,0,l),
(486,79,l),
(84,294,l),
(84,272,l),
(486,487,l),
(486,566,l),
(50,333,l)
);
}
);
width = 536;
}
);
unicode = 60;
},
{
glyphname = asciicircum;
lastChange = "2025-05-30 20:49:38 +0000";
layers = (
{
hints = (
{
name = _corner.round;
origin = (0,0);
scale = (0.75,0.75);
type = Corner;
},
{
name = _corner.round;
origin = (1,3);
scale = (0.75,0.75);
type = Corner;
}
);
layerId = m01;
shapes = (
{
closed = 1;
nodes = (
(145,428,l),
(297,716,l),
(229,716,l),
(77,428,l)
);
},
{
closed = 1;
nodes = (
(459,428,l),
(307,716,l),
(239,716,l),
(391,428,l)
);
}
);
width = 536;
}
);
unicode = 94;
},
{
glyphname = product;
lastChange = "2025-05-31 00:58:13 +0000";
layers = (
{
hints = (
{
name = _corner.round;
origin = (0,1);
type = Corner;
},
{
name = _corner.round;
origin = (0,3);
type = Corner;
},
{
name = _corner.round;
origin = (1,2);
type = Corner;
},
{
name = _corner.round;
origin = (2,2);
type = Corner;
}
);
layerId = m01;
shapes = (
{
closed = 1;
nodes = (
(10,640,l),
(526,640,l),
(526,700,l),
(10,700,l)
);
},
{
closed = 1;
nodes = (
(88,648,l),
(88,-130,l),
(148,-130,l),
(148,648,l)
);
},
{
closed = 1;
nodes = (
(388,648,l),
(388,-130,l),
(448,-130,l),
(448,648,l)
);
}
);
width = 536;
}
);
unicode = 8719;
},
{
glyphname = percent;
lastChange = "2025-05-30 20:50:09 +0000";
layers = (
{
hints = (
{
name = _corner.round;
origin = (0,0);
scale = (0.75,0.75);
type = Corner;
},
{
name = _corner.round;
options = 2;
origin = (0,1);
scale = (0.75,0.75);
type = Corner;
},
{
name = _corner.round;
options = 2;
origin = (0,2);
scale = (0.75,0.75);
type = Corner;
},
{
name = _corner.round;
origin = (0,3);
scale = (0.75,0.75);
type = Corner;
},
{
name = _corner.round;
origin = (2,0);
scale = (0.75,0.75);
type = Corner;
},
{
name = _corner.round;
options = 2;
origin = (2,1);
scale = (0.75,0.75);
type = Corner;
},
{
name = _corner.round;
options = 2;
origin = (2,2);
scale = (0.75,0.75);
type = Corner;
},
{
name = _corner.round;
origin = (2,3);
scale = (0.75,0.75);
type = Corner;
},
{
name = _corner.round;
origin = (4,1);
type = Corner;
},
{
name = _corner.round;
origin = (4,3);
type = Corner;
}
);
layerId = m01;
shapes = (
{
closed = 1;
nodes = (
(40,700,l),
(40,445,l),
(271,445,l),
(271,700,l)
);
},
{
closed = 1;
nodes = (
(100,682,l),
(80,660,l),
(231,660,l),
(211,682,l),
(211,463,l),
(231,485,l),
(80,485,l),
(100,463,l)
);
},
{
closed = 1;
nodes = (
(265,255,l),
(265,0,l),
(496,0,l),
(496,255,l)
);
},
{
closed = 1;
nodes = (
(325,237,l),
(305,215,l),
(456,215,l),
(436,237,l),
(436,18,l),
(456,40,l),
(305,40,l),
(325,18,l)
);
},
{
closed = 1;
nodes = (
(82,116,l),
(506,540,l),
(457,590,l),
(33,166,l)
);
}
);
width = 536;
}
);
unicode = 37;
},
{
glyphname = perthousand;
lastChange = "2025-05-30 20:50:42 +0000";
layers = (
{
hints = (
{
name = _corner.round;
origin = (0,0);
scale = (0.75,0.75);
type = Corner;
},
{
name = _corner.round;
options = 2;
origin = (0,1);
scale = (0.75,0.75);
type = Corner;
},
{
name = _corner.round;
options = 2;
origin = (0,2);
scale = (0.75,0.75);
type = Corner;
},
{
name = _corner.round;
origin = (0,3);
scale = (0.75,0.75);
type = Corner;
},
{
name = _corner.round;
origin = (2,0);
scale = (0.5,0.5);
type = Corner;
},
{
name = _corner.round;
options = 2;
origin = (2,1);
scale = (0.5,0.5);
type = Corner;
},
{
name = _corner.round;
options = 2;
origin = (2,2);
scale = (0.5,0.5);
type = Corner;
},
{
name = _corner.round;
origin = (2,3);
scale = (0.5,0.5);
type = Corner;
},
{
name = _corner.round;
origin = (4,1);
type = Corner;
},
{
name = _corner.round;
origin = (4,3);
type = Corner;
},
{
name = _corner.round;
origin = (5,0);
scale = (0.5,0.5);
type = Corner;
},
{
name = _corner.round;
options = 2;
origin = (5,1);
scale = (0.5,0.5);
type = Corner;
},
{
name = _corner.round;
options = 2;
origin = (5,2);
scale = (0.5,0.5);
type = Corner;
},
{
name = _corner.round;
origin = (5,3);
scale = (0.5,0.5);
type = Corner;
}
);
layerId = m01;
shapes = (
{
closed = 1;
nodes = (
(40,700,l),
(40,445,l),
(271,445,l),
(271,700,l)
);
},
{
closed = 1;
nodes = (
(110,682,l),
(80,660,l),
(231,660,l),
(201,682,l),
(201,463,l),
(231,485,l),
(80,485,l),
(110,463,l)
);
},
{
closed = 1;
nodes = (
(194,179,l),
(194,0,l),
(347,0,l),
(347,179,l)
);
},
{
closed = 1;
nodes = (
(236,167,l),
(221,155,l),
(320,155,l),
(305,167,l),
(305,13,l),
(320,24,l),
(221,24,l),
(236,13,l)
);
},
{
closed = 1;
nodes = (
(82,116,l),
(506,540,l),
(457,590,l),
(33,166,l)
);
},
{
closed = 1;
nodes = (
(351,348,l),
(351,170,l),
(504,170,l),
(504,348,l)
);
},
{
closed = 1;
nodes = (
(393,337,l),
(377,324,l),
(477,324,l),
(462,337,l),
(462,183,l),
(477,194,l),
(377,194,l),
(393,183,l)
);
}
);
width = 536;
}
);
unicode = 8240;
},
{
export = 0;
glyphname = _corner.round;
lastChange = "2025-04-26 22:03:08 +0000";
layers = (
{
layerId = m01;
shapes = (
{
closed = 0;
nodes = (
(0,60,l),
(0,26,o),
(26,0,o),
(60,0,c)
);
}
